<?xml version="1.0" encoding="utf-8"?>
<!-- Telemetry tab icon, transparent background -->
<svg version="1.1" id="Capa_1" xmlns="http://www.w3.org/2000/svg" xmlns:xlink="http://www.w3.org/1999/xlink" x="0px" y="0px"
	 viewBox="0 0 141.7 141.7" enable-background="new 0 0 141.7 141.7" xml:space="preserve">
<g id="Telemetry">
	<path fill="#818181" d="M84.8,14.2c2.8,0,5.1,2.3,5.1,5.1v11.2c9.4,3,17.7,8.7,23.9,16.1c2.1,2.5,1.8,6.2-0.7,8.3
		c-2.5,2.1-6.2,1.8-8.3-0.7c-4.1-4.9-9.3-8.8-15-11.2v7.9c0,2.8-2.3,5.1-5.1,5.1h-28c-2.8,0-5.1-2.3-5.1-5.1V43
		c-5.8,2.4-11,6.3-15.1,11.3c-2.1,2.5-5.8,2.8-8.3,0.7c-2.5-2.1-2.8-5.8-0.7-8.3c6.2-7.4,14.5-13.1,23.9-16.2V19.3
		c0-2.8,2.3-5.1,5.1-5.1H84.8z M78.1,25.9H63.5v18.5h14.7V25.9z"/>
	<path fill="#818181" d="M103.1,58.8H38.6c-10.5,0-19.1,8.5-19.1,19.1v34.4c0,10.5,8.5,19.1,19.1,19.1h64.5
		c10.5,0,19.1-8.5,19.1-19.1V77.9C122.2,67.4,113.7,58.8,103.1,58.8z M110.5,112.3c0,4.1-3.3,7.4-7.4,7.4H38.6
		c-4.1,0-7.4-3.3-7.4-7.4V77.9c0-4.1,3.3-7.4,7.4-7.4h64.5c4.1,0,7.4,3.3,7.4,7.4V112.3z"/>
	<path fill="#818181" d="M43.8,103.5c-2.3,0-4.4-1.3-5.4-3.5c-1.3-3,0-6.4,3-7.8l12.4-5.4c2.5-1.1,5.3-0.2,6.8,2l5.9,8.8l10.2-18.2
		c1-1.8,2.8-3,4.8-3c0.1,0,0.1,0,0.2,0c2.1,0.1,4,1.2,5,3.1l5.1,9.9l4.3-3.7c2.2-1.9,5.4-1.9,7.6-0.1l6.3,5.2c2.5,2,2.8,5.7,0.8,8.2
		c-2,2.5-5.7,2.8-8.2,0.8l-2.4-2l-6,5.1c-1.4,1.2-3.3,1.7-5.1,1.3c-1.8-0.4-3.3-1.5-4.1-3.2L82,93.8l-9.1,16.3c-1,1.8-3,3-5,3
		c0,0-0.1,0-0.1,0c-2,0-3.9-1-5-2.7l-6.9-10.2l-9.8,4.2C45.4,103.3,44.6,103.5,43.8,103.5z"/>
</g>
</svg>
